<?xml version="1.0" encoding="utf-8"?>
<!-- Generator: Adobe Illustrator 25.2.3, SVG Export Plug-In . SVG Version: 6.00 Build 0)  -->
<svg version="1.1" id="Layer_1" xmlns="http://www.w3.org/2000/svg" xmlns:xlink="http://www.w3.org/1999/xlink" x="0px" y="0px"
	 viewBox="0 0 330.35 44.53" style="enable-background:new 0 0 330.35 44.53;" xml:space="preserve">
<style type="text/css">
	.st0{fill:#CD3333;}
	.st1{fill:#228B22;}
	.st2{fill:#B452CD;}
	.st3{fill:#4169E1;}
</style>
<g>
	<g>
		<g>
			<path d="M51.98,13.55h6.8c1.17,0,2.2,0.12,3.07,0.37c0.88,0.24,1.6,0.59,2.19,1.03c0.58,0.44,1.02,0.96,1.31,1.57
				c0.29,0.6,0.44,1.26,0.44,1.97c0,0.52-0.1,1-0.3,1.46c-0.2,0.46-0.48,0.88-0.84,1.27c-0.36,0.39-0.8,0.73-1.31,1.03
				c-0.51,0.3-1.07,0.54-1.69,0.74l6.44,8.65h-4.83l-6.07-8.17h-0.79v8.17h-4.44V13.55z M56.42,21.87h0.96
				c0.54,0,1.04-0.08,1.51-0.23s0.86-0.37,1.2-0.65c0.34-0.28,0.6-0.62,0.79-1.03c0.19-0.41,0.29-0.87,0.29-1.39
				c0-0.48-0.07-0.92-0.22-1.32c-0.15-0.4-0.35-0.74-0.61-1.03c-0.26-0.29-0.57-0.51-0.93-0.67c-0.36-0.16-0.76-0.24-1.19-0.24h-1.8
				V21.87z"/>
			<path d="M74.96,31.94c-0.97,0-1.88-0.18-2.73-0.54c-0.85-0.36-1.6-0.84-2.23-1.45c-0.63-0.61-1.13-1.32-1.5-2.12
				c-0.37-0.8-0.55-1.66-0.55-2.55c0-1.08,0.17-2.07,0.51-2.99c0.34-0.92,0.82-1.72,1.44-2.39c0.62-0.68,1.37-1.2,2.23-1.58
				c0.87-0.38,1.83-0.57,2.9-0.57c0.95,0,1.82,0.15,2.61,0.45c0.79,0.3,1.47,0.72,2.03,1.24c0.56,0.53,1,1.14,1.31,1.85
				c0.31,0.71,0.47,1.47,0.47,2.28H72c0.04,0.76,0.15,1.48,0.34,2.16c0.19,0.68,0.45,1.29,0.77,1.81c0.32,0.52,0.7,0.93,1.13,1.24
				c0.43,0.31,0.91,0.46,1.43,0.46c0.45,0,0.9-0.08,1.34-0.23c0.44-0.16,0.85-0.37,1.22-0.64c0.37-0.27,0.7-0.59,0.97-0.95
				c0.28-0.36,0.48-0.75,0.6-1.17l2.11,0.33c-0.21,0.74-0.55,1.43-1.02,2.08c-0.47,0.65-1.01,1.22-1.64,1.71
				c-0.63,0.49-1.31,0.87-2.05,1.15C76.47,31.8,75.72,31.94,74.96,31.94z M76.71,22.15c-0.04-0.4-0.12-0.77-0.26-1.1
				c-0.14-0.33-0.31-0.62-0.53-0.86c-0.21-0.24-0.46-0.42-0.75-0.55c-0.28-0.13-0.59-0.19-0.92-0.19c-0.26,0-0.51,0.06-0.76,0.19
				c-0.25,0.13-0.47,0.31-0.67,0.55s-0.37,0.52-0.51,0.85c-0.14,0.33-0.23,0.7-0.27,1.11H76.71z"/>
			<path d="M83,21.44c0.14-0.57,0.39-1.09,0.75-1.55c0.36-0.47,0.8-0.86,1.33-1.19c0.53-0.32,1.13-0.58,1.81-0.75
				c0.68-0.18,1.42-0.27,2.21-0.27c0.98,0,1.82,0.09,2.53,0.27c0.71,0.18,1.3,0.43,1.75,0.75c0.46,0.32,0.8,0.72,1.01,1.17
				c0.22,0.46,0.33,0.97,0.33,1.54v7.81c0,0.56,0.17,1.04,0.52,1.43c0.35,0.39,0.84,0.72,1.47,0.97H91.8
				c-0.14,0-0.28-0.04-0.41-0.12c-0.13-0.08-0.25-0.18-0.36-0.31c-0.11-0.13-0.2-0.27-0.28-0.42c-0.08-0.15-0.14-0.3-0.17-0.44
				c-0.25,0.23-0.48,0.44-0.71,0.63c-0.22,0.19-0.47,0.35-0.73,0.49c-0.27,0.13-0.56,0.24-0.89,0.31c-0.33,0.07-0.72,0.11-1.19,0.11
				c-0.63,0-1.2-0.09-1.7-0.27c-0.5-0.18-0.93-0.42-1.28-0.74c-0.35-0.32-0.62-0.69-0.81-1.12c-0.19-0.43-0.28-0.9-0.28-1.41
				c0-0.78,0.22-1.45,0.65-2.01c0.44-0.56,1.01-1.05,1.73-1.47c0.72-0.42,1.53-0.78,2.43-1.09c0.91-0.31,1.83-0.61,2.77-0.89v-1.33
				c0-0.44-0.04-0.81-0.13-1.11c-0.09-0.31-0.21-0.56-0.37-0.75c-0.16-0.19-0.35-0.33-0.58-0.41s-0.48-0.13-0.75-0.13
				c-0.33,0-0.62,0.06-0.88,0.19c-0.26,0.12-0.48,0.29-0.67,0.51c-0.19,0.21-0.34,0.46-0.45,0.73c-0.12,0.28-0.2,0.56-0.25,0.87H83z
				 M90.57,24.59c-0.4,0.17-0.8,0.37-1.21,0.61c-0.41,0.24-0.78,0.51-1.1,0.81c-0.32,0.3-0.59,0.63-0.8,0.99
				c-0.21,0.36-0.31,0.74-0.31,1.15c0,0.45,0.12,0.81,0.35,1.07c0.24,0.26,0.55,0.39,0.95,0.39c0.34,0,0.67-0.1,1-0.3
				c0.33-0.2,0.7-0.46,1.12-0.78V24.59z"/>
			<path d="M102.27,31.63h-4.12V12.54l2.88-1.52h1.24V31.63z"/>
			<path d="M105.82,13.55h2.84l10.31,11.49V13.55h2.77V31.9h-1.91l-11.2-12.69v12.43h-2.81V13.55z"/>
			<path d="M131.46,31.94c-0.97,0-1.88-0.18-2.73-0.54c-0.85-0.36-1.6-0.84-2.23-1.45c-0.63-0.61-1.13-1.32-1.5-2.12
				c-0.37-0.8-0.55-1.66-0.55-2.55c0-1.08,0.17-2.07,0.51-2.99c0.34-0.92,0.82-1.72,1.44-2.39c0.62-0.68,1.37-1.2,2.23-1.58
				c0.87-0.38,1.83-0.57,2.9-0.57c0.95,0,1.82,0.15,2.61,0.45c0.79,0.3,1.47,0.72,2.03,1.24c0.56,0.53,1,1.14,1.31,1.85
				c0.31,0.71,0.47,1.47,0.47,2.28h-9.45c0.04,0.76,0.15,1.48,0.34,2.16c0.19,0.68,0.45,1.29,0.77,1.81
				c0.32,0.52,0.7,0.93,1.13,1.24c0.43,0.31,0.91,0.46,1.43,0.46c0.45,0,0.9-0.08,1.34-0.23c0.44-0.16,0.85-0.37,1.22-0.64
				c0.37-0.27,0.7-0.59,0.97-0.95c0.28-0.36,0.48-0.75,0.6-1.17l2.11,0.33c-0.21,0.74-0.55,1.43-1.02,2.08
				c-0.47,0.65-1.01,1.22-1.64,1.71c-0.63,0.49-1.31,0.87-2.05,1.15C132.96,31.8,132.22,31.94,131.46,31.94z M133.21,22.15
				c-0.04-0.4-0.12-0.77-0.26-1.1c-0.14-0.33-0.31-0.62-0.53-0.86c-0.21-0.24-0.46-0.42-0.75-0.55c-0.28-0.13-0.59-0.19-0.92-0.19
				c-0.26,0-0.51,0.06-0.76,0.19c-0.25,0.13-0.47,0.31-0.67,0.55c-0.2,0.24-0.37,0.52-0.51,0.85c-0.14,0.33-0.23,0.7-0.27,1.11
				H133.21z"/>
			<path d="M145.02,17.98v9.63c0,0.27,0.05,0.52,0.16,0.75c0.11,0.24,0.25,0.44,0.43,0.61c0.18,0.17,0.39,0.31,0.63,0.41
				c0.24,0.1,0.5,0.15,0.77,0.15c0.15,0,0.32-0.04,0.51-0.13c0.19-0.08,0.39-0.2,0.59-0.35c0.2-0.15,0.4-0.33,0.59-0.53
				c0.2-0.2,0.37-0.43,0.52-0.67v-9.87h4.13v13.65h-4.13v-1.27c-0.55,0.46-1.13,0.83-1.74,1.11c-0.61,0.28-1.21,0.41-1.79,0.41
				c-0.68,0-1.31-0.11-1.89-0.34c-0.59-0.23-1.1-0.53-1.53-0.92c-0.43-0.39-0.77-0.84-1.02-1.36c-0.25-0.52-0.37-1.07-0.37-1.66
				v-9.63H145.02z"/>
			<path d="M165.75,20.84c-0.19-0.16-0.36-0.3-0.51-0.41s-0.31-0.21-0.46-0.28c-0.15-0.07-0.31-0.12-0.47-0.15
				c-0.16-0.03-0.35-0.05-0.55-0.05c-0.28,0-0.56,0.05-0.84,0.14c-0.28,0.09-0.53,0.22-0.77,0.39c-0.24,0.16-0.46,0.36-0.65,0.57
				c-0.19,0.22-0.34,0.45-0.45,0.7v9.88h-4.13V19.22l2.89-1.52l1.24,1.33c0.45-0.47,0.96-0.85,1.51-1.13
				c0.56-0.28,1.14-0.43,1.75-0.43c0.6,0,1.13,0.12,1.61,0.37c0.48,0.24,0.9,0.51,1.25,0.81L165.75,20.84z"/>
			<path d="M166.99,21.44c0.14-0.57,0.39-1.09,0.75-1.55c0.36-0.47,0.8-0.86,1.33-1.19c0.53-0.32,1.13-0.58,1.81-0.75
				c0.68-0.18,1.42-0.27,2.21-0.27c0.98,0,1.82,0.09,2.53,0.27c0.71,0.18,1.3,0.43,1.75,0.75c0.46,0.32,0.8,0.72,1.01,1.17
				c0.22,0.46,0.33,0.97,0.33,1.54v7.81c0,0.56,0.17,1.04,0.52,1.43c0.35,0.39,0.84,0.72,1.47,0.97h-4.91
				c-0.14,0-0.28-0.04-0.41-0.12c-0.13-0.08-0.25-0.18-0.36-0.31c-0.11-0.13-0.2-0.27-0.28-0.42c-0.08-0.15-0.14-0.3-0.17-0.44
				c-0.25,0.23-0.48,0.44-0.71,0.63c-0.22,0.19-0.47,0.35-0.73,0.49c-0.27,0.13-0.56,0.24-0.89,0.31c-0.33,0.07-0.72,0.11-1.19,0.11
				c-0.63,0-1.2-0.09-1.7-0.27s-0.93-0.42-1.28-0.74c-0.35-0.32-0.62-0.69-0.81-1.12c-0.19-0.43-0.28-0.9-0.28-1.41
				c0-0.78,0.22-1.45,0.65-2.01s1.01-1.05,1.73-1.47c0.72-0.42,1.53-0.78,2.43-1.09c0.91-0.31,1.83-0.61,2.77-0.89v-1.33
				c0-0.44-0.04-0.81-0.13-1.11c-0.09-0.31-0.21-0.56-0.37-0.75c-0.16-0.19-0.35-0.33-0.58-0.41c-0.23-0.08-0.48-0.13-0.75-0.13
				c-0.33,0-0.62,0.06-0.88,0.19c-0.26,0.12-0.48,0.29-0.67,0.51c-0.19,0.21-0.34,0.46-0.45,0.73c-0.12,0.28-0.2,0.56-0.25,0.87
				H166.99z M174.56,24.59c-0.4,0.17-0.8,0.37-1.21,0.61c-0.41,0.24-0.78,0.51-1.1,0.81c-0.32,0.3-0.59,0.63-0.8,0.99
				c-0.21,0.36-0.31,0.74-0.31,1.15c0,0.45,0.12,0.81,0.35,1.07s0.55,0.39,0.95,0.39c0.34,0,0.67-0.1,1-0.3
				c0.33-0.2,0.7-0.46,1.12-0.78V24.59z"/>
			<path d="M186.25,31.63h-4.12V12.54l2.88-1.52h1.24V31.63z"/>
			<path d="M189.81,13.55h2.84l10.31,11.49V13.55h2.77V31.9h-1.91l-11.2-12.69v12.43h-2.81V13.55z"/>
			<path d="M215.45,31.94c-0.97,0-1.88-0.18-2.73-0.54c-0.85-0.36-1.6-0.84-2.23-1.45c-0.63-0.61-1.13-1.32-1.5-2.12
				c-0.37-0.8-0.55-1.66-0.55-2.55c0-1.08,0.17-2.07,0.51-2.99c0.34-0.92,0.82-1.72,1.44-2.39c0.62-0.68,1.37-1.2,2.23-1.58
				c0.87-0.38,1.83-0.57,2.9-0.57c0.95,0,1.82,0.15,2.61,0.45c0.79,0.3,1.47,0.72,2.03,1.24c0.56,0.53,1,1.14,1.31,1.85
				c0.31,0.71,0.47,1.47,0.47,2.28h-9.45c0.04,0.76,0.15,1.48,0.34,2.16c0.19,0.68,0.45,1.29,0.77,1.81
				c0.32,0.52,0.7,0.93,1.13,1.24c0.43,0.31,0.91,0.46,1.43,0.46c0.45,0,0.9-0.08,1.34-0.23c0.44-0.16,0.85-0.37,1.22-0.64
				c0.37-0.27,0.7-0.59,0.97-0.95c0.28-0.36,0.48-0.75,0.6-1.17l2.11,0.33c-0.21,0.74-0.55,1.43-1.02,2.08
				c-0.47,0.65-1.01,1.22-1.64,1.71c-0.63,0.49-1.31,0.87-2.05,1.15C216.95,31.8,216.21,31.94,215.45,31.94z M217.2,22.15
				c-0.04-0.4-0.12-0.77-0.26-1.1c-0.14-0.33-0.31-0.62-0.53-0.86c-0.21-0.24-0.46-0.42-0.75-0.55c-0.28-0.13-0.59-0.19-0.92-0.19
				c-0.26,0-0.51,0.06-0.76,0.19c-0.25,0.13-0.47,0.31-0.67,0.55c-0.2,0.24-0.37,0.52-0.51,0.85c-0.14,0.33-0.23,0.7-0.27,1.11
				H217.2z"/>
			<path d="M223.31,19.68v-0.97l2.2-0.73V15.2l2.89-1.52h1.24v4.29h3.35v1.71h-3.35v8.79c0,0.28,0.07,0.52,0.21,0.72
				c0.14,0.2,0.33,0.31,0.56,0.31c0.14,0,0.3-0.05,0.47-0.15c0.17-0.1,0.34-0.21,0.49-0.34c0.16-0.13,0.29-0.26,0.41-0.39
				c0.12-0.13,0.21-0.24,0.26-0.31l1.41,1.12c-0.23,0.36-0.48,0.69-0.76,0.99c-0.28,0.31-0.59,0.57-0.95,0.79
				c-0.36,0.22-0.76,0.4-1.23,0.53c-0.46,0.13-1,0.19-1.6,0.19c-0.58,0-1.08-0.08-1.51-0.25c-0.43-0.16-0.78-0.39-1.07-0.69
				c-0.28-0.29-0.5-0.64-0.64-1.05c-0.14-0.41-0.21-0.86-0.21-1.36v-8.91H223.31z"/>
			<path d="M237.75,17.98l3.63,8.01l3.52-8.11h0.81l3.65,8l3.45-7.91h2.68l-6.04,13.96h-1.91l-2.97-6.84l-2.95,6.84h-2.03
				l-6.19-13.96H237.75z"/>
			<path d="M263.51,31.88c-1.08,0-2.09-0.18-3.01-0.53s-1.72-0.84-2.39-1.47c-0.67-0.62-1.2-1.35-1.57-2.19
				c-0.38-0.84-0.57-1.75-0.57-2.73c0-1.05,0.19-2.02,0.57-2.9c0.38-0.88,0.9-1.65,1.57-2.29c0.67-0.64,1.46-1.14,2.38-1.5
				c0.92-0.36,1.92-0.54,3.01-0.54c1.08,0,2.09,0.18,3.01,0.53c0.92,0.35,1.72,0.83,2.39,1.45c0.67,0.61,1.2,1.34,1.58,2.17
				c0.38,0.83,0.57,1.73,0.57,2.69c0,1-0.19,1.95-0.57,2.84c-0.38,0.89-0.9,1.66-1.57,2.33c-0.67,0.66-1.47,1.19-2.39,1.57
				C265.6,31.69,264.6,31.88,263.51,31.88z M263.99,30.22c0.37,0,0.72-0.12,1.04-0.37c0.32-0.24,0.6-0.57,0.83-0.99
				c0.24-0.41,0.42-0.89,0.55-1.43c0.13-0.54,0.19-1.11,0.19-1.69c0-0.87-0.06-1.69-0.19-2.46c-0.13-0.77-0.34-1.44-0.63-2.02
				c-0.29-0.58-0.67-1.04-1.14-1.37c-0.47-0.34-1.04-0.51-1.71-0.51c-0.33,0-0.64,0.12-0.95,0.36c-0.3,0.24-0.57,0.56-0.8,0.97
				c-0.23,0.4-0.42,0.87-0.55,1.4c-0.14,0.53-0.21,1.09-0.21,1.67c0,0.88,0.08,1.71,0.25,2.49c0.16,0.78,0.4,1.46,0.71,2.05
				c0.31,0.58,0.68,1.04,1.12,1.39C262.93,30.05,263.43,30.22,263.99,30.22z"/>
			<path d="M282.4,20.84c-0.19-0.16-0.36-0.3-0.51-0.41c-0.16-0.12-0.31-0.21-0.46-0.28c-0.15-0.07-0.31-0.12-0.47-0.15
				c-0.16-0.03-0.35-0.05-0.55-0.05c-0.28,0-0.56,0.05-0.84,0.14c-0.28,0.09-0.53,0.22-0.77,0.39c-0.24,0.16-0.46,0.36-0.65,0.57
				c-0.19,0.22-0.34,0.45-0.45,0.7v9.88h-4.13V19.22l2.89-1.52l1.24,1.33c0.45-0.47,0.96-0.85,1.51-1.13
				c0.56-0.28,1.14-0.43,1.75-0.43c0.6,0,1.13,0.12,1.61,0.37c0.48,0.24,0.9,0.51,1.25,0.81L282.4,20.84z"/>
			<path d="M288.75,22.66l5.36-4.68h2.99l-5.97,5.23l7.25,8.43h-4.89l-4.73-5.48v5.48h-4.16V12.54l2.92-1.52h1.24V22.66z"/>
			<path d="M300.72,27.82c0.24,0.75,0.58,1.33,1.03,1.74c0.45,0.41,1.01,0.62,1.69,0.62c0.28,0,0.54-0.04,0.78-0.11
				c0.24-0.07,0.44-0.17,0.61-0.3c0.17-0.13,0.31-0.28,0.4-0.45c0.09-0.17,0.14-0.35,0.14-0.55c0-0.32-0.06-0.61-0.18-0.86
				c-0.12-0.25-0.29-0.48-0.5-0.69c-0.21-0.2-0.47-0.39-0.76-0.57c-0.29-0.17-0.61-0.34-0.95-0.49c-0.54-0.24-1.08-0.5-1.61-0.78
				c-0.53-0.28-1.01-0.6-1.44-0.96c-0.43-0.36-0.77-0.77-1.03-1.23c-0.26-0.46-0.39-1-0.39-1.6c0-0.58,0.12-1.1,0.36-1.58
				c0.24-0.48,0.58-0.88,1.01-1.22c0.44-0.34,0.96-0.6,1.56-0.79c0.6-0.19,1.27-0.28,2-0.28c0.67,0,1.26,0.06,1.77,0.19
				c0.52,0.12,0.97,0.3,1.36,0.53c0.39,0.23,0.74,0.51,1.04,0.85c0.3,0.33,0.57,0.71,0.81,1.13l-2.4,0.83
				c-0.12-0.44-0.28-0.77-0.45-1.01c-0.18-0.24-0.36-0.42-0.56-0.54c-0.2-0.12-0.39-0.19-0.57-0.22s-0.35-0.04-0.49-0.04
				c-0.26,0-0.5,0.03-0.73,0.09s-0.44,0.14-0.61,0.25c-0.18,0.11-0.32,0.24-0.43,0.39c-0.11,0.16-0.16,0.34-0.16,0.54
				c0,0.26,0.07,0.5,0.2,0.73s0.32,0.45,0.56,0.65c0.24,0.2,0.52,0.39,0.85,0.57c0.32,0.18,0.68,0.35,1.06,0.51
				c0.58,0.24,1.14,0.51,1.69,0.8c0.55,0.29,1.03,0.62,1.46,0.99c0.43,0.37,0.77,0.78,1.03,1.23c0.26,0.45,0.39,0.95,0.39,1.5
				c0,0.6-0.1,1.15-0.29,1.67c-0.2,0.52-0.51,0.96-0.95,1.35s-1.01,0.68-1.71,0.91c-0.7,0.22-1.54,0.33-2.54,0.33
				c-0.85,0-1.58-0.1-2.17-0.29c-0.59-0.2-1.09-0.45-1.5-0.75c-0.41-0.31-0.75-0.65-1.01-1.03c-0.27-0.38-0.5-0.76-0.71-1.13
				L300.72,27.82z"/>
			<path d="M311.01,30.08c0-0.25,0.05-0.49,0.14-0.71c0.09-0.23,0.22-0.42,0.39-0.59c0.17-0.16,0.36-0.3,0.58-0.39
				c0.22-0.1,0.45-0.15,0.71-0.15c0.26,0,0.5,0.05,0.73,0.15c0.23,0.1,0.42,0.23,0.59,0.39c0.16,0.16,0.3,0.36,0.39,0.59
				c0.1,0.23,0.15,0.46,0.15,0.71c0,0.26-0.05,0.5-0.15,0.72c-0.1,0.22-0.23,0.41-0.39,0.57c-0.16,0.16-0.36,0.29-0.59,0.38
				c-0.23,0.09-0.47,0.14-0.73,0.14c-0.26,0-0.5-0.05-0.71-0.14c-0.22-0.09-0.41-0.22-0.58-0.38c-0.17-0.16-0.3-0.35-0.39-0.57
				C311.06,30.58,311.01,30.34,311.01,30.08z"/>
			<path d="M313.63,34.56c0.42,0.64,0.83,1.08,1.24,1.33c0.41,0.24,0.84,0.37,1.29,0.37c0.12,0,0.22-0.03,0.31-0.09
				c0.09-0.06,0.16-0.16,0.23-0.31c0.06-0.15,0.11-0.36,0.13-0.61c0.03-0.26,0.04-0.59,0.04-0.99V19.22l2.92-1.52h1.24v14.53
				c0,1.21-0.15,2.18-0.46,2.93c-0.31,0.74-0.72,1.32-1.24,1.73c-0.52,0.41-1.13,0.68-1.82,0.83c-0.69,0.14-1.43,0.21-2.2,0.21
				c-0.53,0-1-0.06-1.41-0.18c-0.4-0.12-0.76-0.27-1.07-0.45c-0.31-0.18-0.57-0.37-0.79-0.58c-0.22-0.21-0.42-0.4-0.59-0.58
				L313.63,34.56z M316.71,13.22c0-0.28,0.06-0.54,0.17-0.79c0.12-0.25,0.27-0.46,0.47-0.64c0.2-0.18,0.43-0.32,0.7-0.43
				c0.27-0.11,0.56-0.16,0.87-0.16c0.3,0,0.59,0.05,0.86,0.16c0.27,0.11,0.51,0.25,0.71,0.43c0.2,0.18,0.36,0.39,0.48,0.64
				c0.12,0.25,0.17,0.51,0.17,0.79c0,0.28-0.06,0.54-0.17,0.78c-0.12,0.24-0.28,0.46-0.48,0.63c-0.21,0.18-0.44,0.32-0.71,0.43
				c-0.27,0.11-0.56,0.16-0.86,0.16c-0.31,0-0.6-0.05-0.87-0.16c-0.27-0.11-0.5-0.25-0.7-0.43c-0.2-0.18-0.36-0.39-0.47-0.63
				C316.77,13.75,316.71,13.49,316.71,13.22z"/>
			<path d="M328.55,31.63h-4.12V12.54l2.88-1.52h1.24V31.63z"/>
		</g>
	</g>
	<g>
		<path d="M35.6,28.2c-0.41-0.15-0.79-0.32-1.16-0.48c-1.1-0.47-2.15-0.92-3.5-0.99c-1.34-0.07-2.6-0.13-3.78-0.89
			c-0.36-0.23-0.64-0.44-0.88-0.62c-0.56-0.42-1.01-0.75-1.87-0.88c-0.01,0-0.01,0-0.02,0c0.18-0.56,0.28-1.15,0.28-1.77
			c0-0.93-0.23-1.8-0.62-2.58c1-0.53,1.4-0.62,2.36-0.61c0.43,0,0.87,0.16,1.34,0.32c0.23,0.08,0.46,0.16,0.69,0.23l0.59,0.16
			c2.18,0.61,3.32,0.93,5.35,0.93c0.45,0,0.95-0.02,1.51-0.05c0.26-0.01,0.45-0.23,0.44-0.49c-0.01-0.26-0.24-0.46-0.49-0.44
			c-2.38,0.14-3.48-0.02-5.22-0.48c1.71-1.25,3.08-3.7,4.09-7.31c0.07-0.25-0.08-0.51-0.32-0.57c-0.25-0.07-0.51,0.07-0.57,0.32
			c-1.1,3.92-2.59,6.34-4.43,7.22c-0.03-0.01-0.07-0.02-0.1-0.03l-0.59-0.16c-0.21-0.06-0.42-0.13-0.63-0.21
			c-0.52-0.18-1.05-0.37-1.64-0.37c-1.19-0.02-1.75,0.15-2.86,0.75c-0.57-0.77-1.32-1.4-2.2-1.81c0.67-0.87,1.34-1.77,1.85-2.78
			c0.66-1.33,0.92-2.67,0.74-3.88c-0.08-0.55-0.25-1.07-0.41-1.58c-0.21-0.64-0.4-1.24-0.41-1.85c-0.02-1.13,0.59-2.22,1.12-3.19
			c0.13-0.23,0.04-0.51-0.18-0.63c-0.23-0.12-0.51-0.04-0.63,0.18c-0.56,1.02-1.27,2.28-1.24,3.66c0.02,0.75,0.24,1.44,0.46,2.12
			c0.16,0.49,0.31,0.95,0.38,1.43c0.12,0.82-0.02,1.61-0.23,2.29c-2.02-1.7-2.6-2.57-2.96-5.2c-0.03-0.26-0.27-0.43-0.52-0.4
			c-0.26,0.03-0.43,0.27-0.4,0.52c0.41,3,1.16,4.03,3.52,5.99c-0.02,0.04-0.04,0.08-0.06,0.12c-0.51,1.02-1.22,1.95-1.93,2.86
			c-0.48-0.13-0.98-0.21-1.5-0.21c-0.86,0-1.68,0.2-2.41,0.54c-1.15-0.65-2.13-1.39-3.07-2.34c-0.73-2.32-1.01-4.96-0.74-7.07
			c0.03-0.26-0.15-0.49-0.4-0.52c-0.26-0.03-0.49,0.15-0.52,0.4c-0.22,1.7-0.1,3.71,0.3,5.65c-0.42-0.51-0.86-1.02-1.42-1.42
			c-0.73-0.51-1.6-0.75-2.36-0.97c-1.1-0.31-2.4-0.66-3.7-0.86c-0.15-0.02-0.29-0.04-0.43-0.05c-0.24-0.02-0.44-0.04-0.66-0.11
			c-0.25-0.08-0.51,0.05-0.59,0.29C2.87,10.63,3,10.9,3.25,10.98c0.32,0.11,0.6,0.13,0.87,0.16c0.12,0.01,0.24,0.02,0.37,0.04
			c1.25,0.19,2.52,0.53,3.59,0.84c0.73,0.21,1.48,0.42,2.09,0.84c0.51,0.35,0.91,0.84,1.33,1.36c0.1,0.12,0.19,0.23,0.29,0.35
			c1.21,1.44,2.4,2.48,3.84,3.36c-0.84,0.6-1.51,1.42-1.92,2.38c-0.38-0.21-0.89-0.44-1.73-0.68c-1.52-0.44-3.1-0.23-4.24,0.56
			c-0.67,0.46-1.15,1.09-1.62,1.69c0,0.01-0.01,0.01-0.01,0.02c-0.67-1.44-1.84-2.62-3.28-3.3c-0.23-0.11-0.51-0.01-0.62,0.22
			c-0.11,0.23-0.01,0.51,0.22,0.62c1.36,0.65,2.47,1.86,3.01,3.28c-0.01,0.01-0.02,0.02-0.02,0.03c-1.09,1.19-2.64,1.97-4.25,2.13
			c-0.26,0.02-0.44,0.25-0.42,0.51c0.02,0.24,0.23,0.42,0.46,0.42c0.01,0,0.03,0,0.05,0c1.84-0.18,3.61-1.06,4.85-2.43
			c0.27-0.3,0.52-0.61,0.75-0.92c0.45-0.58,0.87-1.12,1.42-1.5c0.91-0.63,2.2-0.79,3.45-0.43c0.87,0.25,1.34,0.48,1.69,0.69
			c-0.11,0.44-0.17,0.89-0.17,1.36c0,0.65,0.11,1.27,0.31,1.85c-2.52,0.83-2.99,1.74-3.87,3.45c-0.28,0.54-0.59,1.39-0.93,2.28
			c-0.57,1.53-1.29,3.43-1.95,4.14c-0.18,0.19-0.17,0.48,0.02,0.66c0.09,0.08,0.2,0.13,0.32,0.13c0.12,0,0.25-0.05,0.34-0.15
			c0.79-0.84,1.51-2.76,2.14-4.45c0.28-0.76,0.55-1.47,0.79-1.96c0.36,0.44,0.55,0.99,0.69,1.49c0.28,1.04,0.35,1.87,0.23,2.61
			c-0.04,0.25,0.13,0.5,0.38,0.54c0.03,0,0.05,0.01,0.08,0.01c0.22,0,0.42-0.16,0.46-0.39c0.15-0.88,0.07-1.84-0.25-3.01
			c-0.18-0.65-0.43-1.39-0.99-1.99c-0.05-0.05-0.1-0.08-0.16-0.11c0.64-1.19,1.17-1.77,3.08-2.38c0.97,1.8,2.86,3.02,5.04,3.02
			c0.26,0,0.51-0.02,0.76-0.06c0.1,0.81,0.37,1.91,0.7,2.61c-0.11,0.39-0.22,0.78-0.32,1.15c-0.49,1.83-0.87,3.27-2.22,4.19
			c-0.23,0.16-0.29,0.48-0.13,0.71c0.1,0.14,0.26,0.22,0.42,0.22c0.1,0,0.2-0.03,0.29-0.09c1.66-1.14,2.13-2.9,2.63-4.77
			c0.01-0.02,0.01-0.04,0.02-0.07c0.14,0.26,0.29,0.51,0.46,0.76c0.29,0.42,0.61,0.81,0.93,1.19c0.6,0.72,1.16,1.39,1.44,2.21
			c0.54,1.6-0.15,3.3-0.61,4.17c-0.15,0.28-0.04,0.62,0.24,0.77c0.08,0.04,0.18,0.07,0.26,0.07c0.2,0,0.4-0.11,0.5-0.3
			c0.54-1.03,1.36-3.06,0.68-5.07c-0.35-1.02-1-1.81-1.64-2.58c-0.31-0.37-0.61-0.73-0.86-1.11c-0.42-0.61-0.76-1.32-1.06-1.94
			c-0.31-0.64-0.55-1.74-0.61-2.4c1.4-0.49,2.56-1.51,3.23-2.82c0.06,0.05,0.13,0.09,0.22,0.11c0.63,0.09,0.92,0.31,1.45,0.71
			c0.26,0.19,0.55,0.41,0.93,0.66c0.47,0.3,0.95,0.51,1.43,0.65c0.01,0.03,0.01,0.05,0.03,0.08c0.7,1.08,0.97,2.43,0.75,3.7
			c-0.04,0.25,0.13,0.5,0.38,0.54c0.03,0,0.05,0.01,0.08,0.01c0.22,0,0.42-0.16,0.46-0.39c0.22-1.24,0.02-2.54-0.51-3.68
			c0.54,0.07,1.08,0.1,1.62,0.13c1.19,0.06,2.11,0.46,3.18,0.91c0.38,0.16,0.77,0.33,1.19,0.49c0.07,0.03,0.12,0.05,0.15,0.07
			c0.01,0.21,0.16,0.39,0.37,0.44c0.03,0.01,0.06,0.01,0.09,0.01c0.22,0,0.41-0.15,0.46-0.37C36.43,28.79,36.15,28.41,35.6,28.2z
			 M18.96,27.14c-2.52,0-4.57-2.05-4.57-4.57c0-2.52,2.05-4.57,4.57-4.57s4.57,2.05,4.57,4.57C23.53,25.09,21.48,27.14,18.96,27.14z
			"/>
		<circle class="st0" cx="35.89" cy="29.12" r="2.49"/>
		<circle class="st0" cx="3.4" cy="10.78" r="2.49"/>
		<circle class="st1" cx="7.14" cy="34.61" r="2.49"/>
		<circle class="st1" cx="34.28" cy="11.93" r="2.49"/>
		<circle class="st2" cx="23.87" cy="3.89" r="2.49"/>
		<circle class="st3" cx="19.05" cy="22.57" r="2.49"/>
		<circle class="st2" cx="23.92" cy="40.68" r="2.49"/>
	</g>
</g>
</svg>
